<svg width="1024" height="1024" viewBox="0 0 1024 1024" fill="none" xmlns="http://www.w3.org/2000/svg">
<rect width="1024" height="1024" fill="#403D3D"/>
<rect width="1024" height="1024" fill="white"/>
<g clip-path="url(#clip0_0_1)">
<path d="M511.5 134C303.027 134 134 303.027 134 511.5C134 719.997 303.027 889 511.5 889C719.973 889 889 719.997 889 511.5C889 303.027 719.973 134 511.5 134ZM511.5 818.219C342.38 818.219 204.781 680.619 204.781 511.5C204.781 342.381 342.381 204.781 511.5 204.781C680.642 204.781 818.219 342.381 818.219 511.5C818.219 680.619 680.642 818.219 511.5 818.219Z" fill="#9A1B43" stroke="black" stroke-width="0.00755"/>
<path d="M511.5 251.969C368.394 251.969 251.969 368.394 251.969 511.5C251.969 654.606 368.394 771.031 511.5 771.031C654.606 771.031 771.031 654.606 771.031 511.5C771.031 368.394 654.606 251.969 511.5 251.969ZM511.5 747.438C381.411 747.438 275.562 641.589 275.562 511.5C275.562 381.411 381.411 275.562 511.5 275.562C641.611 275.562 747.438 381.411 747.438 511.5C747.438 641.589 641.611 747.438 511.5 747.438Z" fill="#9A1B43" stroke="black" stroke-width="0.00755"/>
<path d="M521.961 389.268H446.019C433.899 389.268 424.084 399.083 424.084 411.179V635.044C424.084 647.164 433.899 656.979 446.019 656.979H457.032C469.152 656.979 478.967 647.164 478.967 635.044V572.005H521.961C579.447 572.005 626.244 531.039 626.244 480.648C626.244 430.258 579.447 389.268 521.961 389.268ZM521.961 523.919H478.967V437.355H521.961C549.195 437.355 571.337 456.779 571.337 480.648C571.337 504.496 549.195 523.919 521.961 523.919Z" fill="#9A1B43" stroke="black" stroke-width="0.00755"/>
</g>
<defs>
<clipPath id="clip0_0_1">
<rect width="755" height="755" fill="white" transform="translate(134 134)"/>
</clipPath>
</defs>
</svg>
